PathFileType	4	(X/Y/Z)	C:\Users\willi\Desktop\Data_PaperCallum_v2\17_Akif\Gait02\marker_experimental_temp.trc
DataRate	CameraRate	NumFrames	NumMarkers	Units	OrigDataRate	OrigDataStartFrame	OrigNumFrames
100.000000	100.000000	8	27	mm	100.000000	146	167
Frame#	Time	C7			T10			Clav			Sternum			Right_Back			PCL_CRAN			PCL_RECHTS			PCL_LINKS			RCL_UL_CRAN			RCL_UL_POST			RCL_UL_ANT			RCL_LL_CRAN			RCL_LL_POST			RCL_LL_ANT			Right_Heel			Right_Toe			Right_M5			LCL_UL_CRAN			LCL_UL_POST			LCL_UL_ANT			LCL_LL_CRAN			LCL_LL_POST			LCL_LL_ANT			Left_Heel			Left_Toe			Left_M5			*26			
		X1	Y1	Z1	X2	Y2	Z2	X3	Y3	Z3	X4	Y4	Z4	X5	Y5	Z5	X6	Y6	Z6	X7	Y7	Z7	X8	Y8	Z8	X9	Y9	Z9	X10	Y10	Z10	X11	Y11	Z11	X12	Y12	Z12	X13	Y13	Z13	X14	Y14	Z14	X15	Y15	Z15	X16	Y16	Z16	X17	Y17	Z17	X18	Y18	Z18	X19	Y19	Z19	X20	Y20	Z20	X21	Y21	Z21	X22	Y22	Z22	X23	Y23	Z23	X24	Y24	Z24	X25	Y25	Z25	X26	Y26	Z26	X27	Y27	Z27	

147	1.46	-515.6942749023439	1400.463256835938	261.0471496582032	-482.2751159667969	1184.0244140625	262.3740844726563	-659.1596069335939	1330.3984375	257.0744323730469	-721.6889038085939	1168.070068359375	269.4606323242188	-476.7561035156251	1338.802978515625	150.7411651611328	-496.3589172363282	1014.388000488281	246.7567138671875	-488.5293884277344	955.1438598632813	222.5289459228516	-486.7836914062501	954.089111328125	273.0266113281251	-677.7197875976563	732.9326782226563	70.81145477294926	-685.0020751953125	668.7427368164063	74.0614395141602	-728.8983154296875	693.0032958984375	68.55957031250004	-726.2841186523438	391.0025329589843	93.03906250000004	-696.4146118164063	333.3097229003906	95.14708709716801	-747.262451171875	328.4201354980468	95.18413543701176	-646.2283325195313	48.27060699462886	203.294418334961	-826.6809692382813	44.9338874816894	141.1085815429688	-773.7633056640625	31.454174041748	100.6132354736329	-586.1302490234375	746.3355102539063	420.1778259277344	-568.3294677734375	684.2752685546875	408.3860168457032	-616.994384765625	688.739501953125	416.3783569335938	-501.9286499023438	373.4462890624999	379.6389465332032	-468.7327575683594	317.2697753906249	381.2208557128907	-518.476806640625	310.0178527832031	374.9689025878907	-383.5685119628906	38.4127616882324	290.9010620117188	-590.1099853515625	26.41316986083981	299.6479797363282	-541.724609375	7.363634586334196	361.8823852539063	nan	nan	nan	
148	1.47	-529.1029052734376	1398.728515625	260.7539672851563	-495.4202575683594	1182.396484375	261.6058654785157	-672.5759277343751	1328.45654296875	256.6930847167969	-734.8084106445314	1165.966552734375	269.6629943847657	-489.9439697265626	1336.916625976563	150.9474334716797	-509.5070190429688	1012.592712402344	245.0295104980469	-501.8314208984376	953.305908203125	220.8585662841797	-499.6293029785157	952.3566284179688	271.3398437500001	-691.2764282226563	730.6807861328125	71.57665252685551	-698.703857421875	666.5386352539063	75.23981475830082	-742.5737915039063	690.8302001953125	69.82508087158207	-745.130859375	387.3477172851562	95.38458251953129	-718.9923706054688	327.7532653808593	97.39289855957036	-770.1246337890625	326.2608642578124	96.69712066650395	-692.4755859375	38.86177062988277	203.3487396240235	-872.1409301757813	47.3257331848144	139.298568725586	-819.8280029296875	30.15292930603022	99.39865112304693	-595.2577514648438	745.3967895507813	419.9193420410157	-576.847412109375	683.4844360351563	408.0897521972657	-625.4962768554688	687.3969116210938	416.2765197753907	-506.5297241210938	373.5344848632812	379.2054443359376	-472.5884094238281	317.7854919433593	380.7825012207032	-522.3155517578125	309.8246154785156	374.7545776367188	-383.7684631347656	39.55058670043943	290.4391784667969	-590.1315307617188	26.37400054931637	299.7146911621094	-541.5835571289063	7.417971611022916	361.8268432617188	nan	nan	nan	
149	1.48	-542.5725097656251	1396.838623046875	260.3643493652344	-508.6416625976563	1180.60888671875	260.7234497070313	-686.0685424804689	1326.361938476563	256.2646179199219	-748.0064086914064	1163.712524414063	269.8026428222657	-503.2383117675782	1334.8876953125	151.0287322998047	-522.7616577148439	1010.605346679688	243.2375030517578	-515.2581787109376	951.2625732421875	219.146240234375	-512.5968017578126	950.4439697265625	269.6104736328126	-704.4140625	727.8702392578125	72.33375549316411	-711.5960693359375	663.68017578125	76.43625640869145	-755.5415649414063	687.814208984375	71.07353210449223	-763.6250610351563	383.6665649414062	97.72090911865239	-741.244384765625	322.3964843749999	99.69969177246098	-792.4744873046875	324.3093566894531	98.18396759033207	-738.1321411132813	31.44875144958491	203.0952301025391	-916.4600219726563	51.20627212524408	137.5657653808594	-865.0512084960938	30.46758079528803	98.23036193847662	-604.591796875	744.4146728515625	419.6841125488282	-585.6044921875	682.661865234375	407.8355407714844	-634.221435546875	686.0368041992188	416.2375793457032	-511.3696594238281	373.6353759765624	378.8403625488282	-476.6228637695313	318.3584899902343	380.4364013671876	-526.2810668945313	309.6706542968749	374.6694946289063	-383.9843444824219	40.85197830200193	290.1160583496094	-590.1438598632813	26.3376483917236	299.7866516113282	-541.4371337890625	7.455783843994108	361.7799072265626	nan	nan	nan	
150	1.49	-556.1044311523439	1394.8212890625	259.8748474121094	-521.9487915039064	1178.685546875	259.7392272949219	-699.6385498046876	1324.146606445313	255.7854766845704	-761.2907714843751	1161.343994140625	269.8748779296876	-516.6423339843751	1332.742065429688	150.9784851074219	-536.1354980468751	1008.454833984375	241.4073028564453	-528.8183593750001	949.0465698242188	217.4105682373047	-525.7022705078126	948.3760375976563	267.8572082519532	-717.2452392578125	724.5850219726563	72.99024200439457	-723.7406005859375	660.2496337890625	77.45513916015629	-767.8912353515625	684.0159912109375	72.1947402954102	-781.8797607421875	380.0756225585937	100.0040359497071	-763.2476196289063	317.3963012695312	101.9944229125977	-814.3822021484375	322.6416625976562	99.64380645751959	-782.5682983398438	25.99709892272945	202.5677795410157	-959.186279296875	56.50689697265619	136.1400909423829	-908.9942626953125	32.39467239379877	97.26356506347662	-614.1558837890625	743.3988647460938	419.4710693359376	-594.5990600585938	681.8284301757813	407.6385498046876	-643.1760864257813	684.6681518554688	416.2466735839844	-516.4397583007813	373.7672729492187	378.5578918457032	-480.8199157714844	319.0190124511718	380.1961059570313	-530.345458984375	309.5791931152343	374.6981506347657	-384.2261657714844	42.34608840942381	289.9379272460938	-590.1472778320313	26.3037071228027	299.8654785156251	-541.28759765625	7.473557949066129	361.7436523437501	nan	nan	nan	
151	1.5	-569.6991577148439	1392.70458984375	259.2824707031251	-535.3506469726564	1176.651977539063	258.6659240722657	-713.2860717773439	1321.843383789063	255.2527160644532	-774.6691284179689	1158.8984375	269.8762512207032	-530.1585693359376	1330.505249023438	150.7912292480469	-549.6406250000001	1006.173706054688	239.5652618408203	-542.5189208984376	946.6947021484375	215.6692962646485	-538.9602050781251	946.18115234375	266.0980529785157	-729.9190673828125	720.9449462890625	73.46212768554692	-735.285888671875	656.385009765625	78.10958862304692	-779.783203125	679.5673828125	73.05934143066411	-799.9959716796875	376.6837463378906	102.1894912719727	-785.0565185546875	312.9038391113281	104.1826782226563	-835.9041137695313	321.3106384277343	101.0767669677735	-825.1205444335938	22.32243347167964	201.8237304687501	-999.8489379882813	63.02417755126947	135.2988586425782	-951.1874389648438	35.78619766235346	96.68486785888678	-623.971435546875	742.3555908203125	419.2769470214844	-603.830810546875	680.995849609375	407.5152282714844	-652.3677978515625	683.2950439453125	416.2908020019532	-521.7542724609375	373.9385681152343	378.3645019531251	-485.1980285644531	319.7828063964843	380.0648498535157	-534.5320434570313	309.5588073730468	374.8110046386719	-384.5034790039063	44.06082534790037	289.90478515625	-590.14404296875	26.27211570739743	299.9534301757813	-541.1383666992188	7.469644546508756	361.7193603515626	nan	nan	nan	
152	1.51	-583.3568115234376	1390.51708984375	258.5848999023438	-548.8554687500001	1174.534057617188	257.5160217285157	-727.0110473632814	1319.485595703125	254.6639251708985	-788.1491088867189	1156.414184570313	269.8045959472657	-543.7887573242189	1328.203002929688	150.4627075195313	-563.2879028320314	1003.797546386719	237.7367553710938	-556.3650512695314	944.2468872070313	213.9389343261719	-552.3830566406251	943.8903198242188	264.3497314453126	-742.611572265625	717.0985107421875	73.68693542480473	-746.4718627929688	652.2700805664063	78.26288604736332	-791.4471435546875	674.671630859375	73.54214477539067	-818.0511474609375	373.5813598632812	104.2360534667969	-806.6849975585938	309.0427551269531	106.1499862670899	-857.0696411132813	320.3325805664062	102.4850082397462	-865.12890625	20.10835647583002	200.9451599121094	-1037.97705078125	70.40179443359369	135.3299255371094	-991.1422729492188	40.33664703369134	96.69256591796881	-634.058837890625	741.2872314453125	419.0963439941407	-613.306640625	680.1654663085938	407.4735107421876	-661.8086547851563	681.9168090820313	416.3618164062501	-527.3477172851563	374.1473388671874	378.2589416503907	-489.8047790527344	320.6501159667968	380.0368652343751	-538.9065551757813	309.6045227050781	374.9732055664063	-384.8253173828125	46.02228927612303	290.0115356445313	-590.138427734375	26.24304199218746	300.0531616210938	-540.993408203125	7.444371223449674	361.7077026367188	nan	nan	nan	
153	1.52	-597.0767822265626	1388.287231445313	257.7803955078126	-562.4705200195314	1172.358764648438	256.3013305664063	-740.8128051757814	1317.106201171875	254.0172882080079	-801.7380371093751	1153.929077148438	269.6589965820313	-557.5339355468751	1325.860229492188	149.9899597167969	-577.0867919921876	1001.364379882813	235.9454650878907	-570.3598022460939	941.7455444335938	212.2345275878907	-565.9810180664064	941.536865234375	262.6275939941407	-755.5106201171875	713.2106323242188	73.63411712646489	-757.6214599609375	648.1156005859375	77.86617279052739	-803.1700439453125	669.5916137695313	73.55493927001957	-836.0908203125	370.8305358886718	106.1098861694337	-828.0929565429688	305.8865051269531	107.7727508544922	-877.8720092773438	319.6768798828124	103.876335144043	-901.9763793945313	18.94678878784174	200.0348815917969	-1073.125244140625	78.13076782226555	136.4859008789063	-1028.371826171875	45.59001159667962	97.47026062011724	-644.4376220703125	740.192626953125	418.9219970703126	-623.0442504882813	679.3280639648438	407.5044555664063	-671.5171508789063	680.52880859375	416.4560546875001	-533.2686767578125	374.3827819824218	378.2355957031251	-494.7040100097656	321.6085815429687	380.1005554199219	-543.5554809570313	309.7009277343749	375.1538085937501	-385.2008972167969	48.25510025024412	290.2497863769531	-590.1353149414063	26.21652221679684	300.1670532226563	-540.8568725585938	7.399839878082243	361.7084960937501	nan	nan	nan	
154	1.53	-610.8581542968751	1386.04248046875	256.8678894042969	-576.2019653320314	1170.152587890625	255.032699584961	-754.6904296875001	1314.737426757813	253.3115692138672	-815.4429931640626	1151.480712890625	269.4395751953126	-571.3944702148439	1323.500732421875	149.3712768554688	-591.0447387695314	998.913330078125	234.2128601074219	-584.5042114257814	939.2340087890625	210.569320678711	-579.7618408203126	939.1553344726563	260.9452514648438	-768.7981567382813	709.447998046875	73.31163787841801	-769.1165771484375	644.1339111328125	76.98199462890629	-815.2731323242188	664.6268920898438	73.08099365234381	-854.1242065429688	368.4577941894531	107.7879028320313	-849.180908203125	303.4392700195312	108.9414825439454	-898.2635498046875	319.2615356445312	105.2684555053712	-935.129150390625	18.39599609374994	199.2071228027344	-1104.90771484375	85.57712554931634	138.9373931884766	-1062.419067382813	50.9708404541015	99.15815734863288	-655.127685546875	739.067626953125	418.7450866699219	-633.0732421875	678.4662475585938	407.5786132812501	-681.5194091796875	679.123779296875	416.5720214843751	-539.5721435546875	374.6280212402343	378.2891540527344	-499.9618835449219	322.6374511718749	380.2418823242188	-548.5617065429688	309.8261413574218	375.3342895507813	-385.6406555175781	50.78406906127928	290.6096801757813	-590.1392822265625	26.19204139709469	300.2966613769532	-540.731201171875	7.33966779708859	361.7203674316407	nan	nan	nan	
